<svg xmlns="http://www.w3.org/2000/svg" xmlns:xlink="http://www.w3.org/1999/xlink" width="500" zoomAndPan="magnify" viewBox="0 0 375 374.999991" height="500" preserveAspectRatio="xMidYMid meet" version="1.0"><defs><g/></defs><g fill="#375bff" fill-opacity="1"><g transform="translate(33.363144, 267.648055)"><g><path d="M 92.6875 -213.890625 C 104.0625 -213.890625 115.179688 -212.234375 126.046875 -208.921875 C 136.910156 -205.617188 144.972656 -202.351562 150.234375 -199.125 L 157.875 -194.03125 L 138.53125 -155.84375 C 137 -156.863281 134.875 -158.175781 132.15625 -159.78125 C 129.4375 -161.394531 124.34375 -163.5625 116.875 -166.28125 C 109.40625 -169 102.445312 -170.359375 96 -170.359375 C 88.019531 -170.359375 81.863281 -168.660156 77.53125 -165.265625 C 73.207031 -161.867188 71.046875 -157.285156 71.046875 -151.515625 C 71.046875 -148.628906 72.0625 -145.953125 74.09375 -143.484375 C 76.132812 -141.023438 79.613281 -138.394531 84.53125 -135.59375 C 89.457031 -132.789062 93.785156 -130.539062 97.515625 -128.84375 C 101.253906 -127.144531 107.03125 -124.597656 114.84375 -121.203125 C 128.425781 -115.429688 140.007812 -107.582031 149.59375 -97.65625 C 159.1875 -87.726562 163.984375 -76.484375 163.984375 -63.921875 C 163.984375 -51.859375 161.816406 -41.328125 157.484375 -32.328125 C 153.160156 -23.335938 147.222656 -16.296875 139.671875 -11.203125 C 132.117188 -6.109375 123.757812 -2.332031 114.59375 0.125 C 105.425781 2.582031 95.492188 3.8125 84.796875 3.8125 C 75.628906 3.8125 66.628906 2.878906 57.796875 1.015625 C 48.972656 -0.847656 41.585938 -3.179688 35.640625 -5.984375 C 29.703125 -8.785156 24.359375 -11.539062 19.609375 -14.25 C 14.859375 -16.96875 11.378906 -19.265625 9.171875 -21.140625 L 5.859375 -23.9375 L 29.796875 -64.171875 C 31.828125 -62.472656 34.625 -60.304688 38.1875 -57.671875 C 41.757812 -55.046875 48.085938 -51.523438 57.171875 -47.109375 C 66.253906 -42.691406 74.273438 -40.484375 81.234375 -40.484375 C 101.429688 -40.484375 111.53125 -47.359375 111.53125 -61.109375 C 111.53125 -63.992188 110.804688 -66.664062 109.359375 -69.125 C 107.921875 -71.59375 105.375 -74.054688 101.71875 -76.515625 C 98.070312 -78.984375 94.847656 -80.9375 92.046875 -82.375 C 89.242188 -83.820312 84.660156 -86.03125 78.296875 -89 C 71.929688 -91.96875 67.222656 -94.21875 64.171875 -95.75 C 51.441406 -102.03125 41.59375 -109.878906 34.625 -119.296875 C 27.664062 -128.722656 24.1875 -138.867188 24.1875 -149.734375 C 24.1875 -168.578125 31.144531 -183.976562 45.0625 -195.9375 C 58.988281 -207.90625 74.863281 -213.890625 92.6875 -213.890625 Z M 92.6875 -213.890625 "/></g></g></g><g fill="#9dafff" fill-opacity="1"><g transform="translate(166.38729, 302.847765)"><g><path d="M 92.6875 -213.890625 C 104.0625 -213.890625 115.179688 -212.234375 126.046875 -208.921875 C 136.910156 -205.617188 144.972656 -202.351562 150.234375 -199.125 L 157.875 -194.03125 L 138.53125 -155.84375 C 137 -156.863281 134.875 -158.175781 132.15625 -159.78125 C 129.4375 -161.394531 124.34375 -163.5625 116.875 -166.28125 C 109.40625 -169 102.445312 -170.359375 96 -170.359375 C 88.019531 -170.359375 81.863281 -168.660156 77.53125 -165.265625 C 73.207031 -161.867188 71.046875 -157.285156 71.046875 -151.515625 C 71.046875 -148.628906 72.0625 -145.953125 74.09375 -143.484375 C 76.132812 -141.023438 79.613281 -138.394531 84.53125 -135.59375 C 89.457031 -132.789062 93.785156 -130.539062 97.515625 -128.84375 C 101.253906 -127.144531 107.03125 -124.597656 114.84375 -121.203125 C 128.425781 -115.429688 140.007812 -107.582031 149.59375 -97.65625 C 159.1875 -87.726562 163.984375 -76.484375 163.984375 -63.921875 C 163.984375 -51.859375 161.816406 -41.328125 157.484375 -32.328125 C 153.160156 -23.335938 147.222656 -16.296875 139.671875 -11.203125 C 132.117188 -6.109375 123.757812 -2.332031 114.59375 0.125 C 105.425781 2.582031 95.492188 3.8125 84.796875 3.8125 C 75.628906 3.8125 66.628906 2.878906 57.796875 1.015625 C 48.972656 -0.847656 41.585938 -3.179688 35.640625 -5.984375 C 29.703125 -8.785156 24.359375 -11.539062 19.609375 -14.25 C 14.859375 -16.96875 11.378906 -19.265625 9.171875 -21.140625 L 5.859375 -23.9375 L 29.796875 -64.171875 C 31.828125 -62.472656 34.625 -60.304688 38.1875 -57.671875 C 41.757812 -55.046875 48.085938 -51.523438 57.171875 -47.109375 C 66.253906 -42.691406 74.273438 -40.484375 81.234375 -40.484375 C 101.429688 -40.484375 111.53125 -47.359375 111.53125 -61.109375 C 111.53125 -63.992188 110.804688 -66.664062 109.359375 -69.125 C 107.921875 -71.59375 105.375 -74.054688 101.71875 -76.515625 C 98.070312 -78.984375 94.847656 -80.9375 92.046875 -82.375 C 89.242188 -83.820312 84.660156 -86.03125 78.296875 -89 C 71.929688 -91.96875 67.222656 -94.21875 64.171875 -95.75 C 51.441406 -102.03125 41.59375 -109.878906 34.625 -119.296875 C 27.664062 -128.722656 24.1875 -138.867188 24.1875 -149.734375 C 24.1875 -168.578125 31.144531 -183.976562 45.0625 -195.9375 C 58.988281 -207.90625 74.863281 -213.890625 92.6875 -213.890625 Z M 92.6875 -213.890625 "/></g></g></g></svg>